MicroGrotesk-Regular.ufo
<glyph name="hyphen" format="2">
  <advance width="118"/>
  <unicode hex="002D"/>
  <outline>
    <contour>
      <point x="18" y="70" type="line"/>
      <point x="100" y="70" type="line"/>
      <point x="100" y="90" type="line"/>
      <point x="18" y="90" type="line"/>
    </contour>
  </outline>
</glyph>
<glyph name="period" format="2">
  <advance width="70"/>
  <unicode hex="002E"/>
  <outline>
    <contour>
      <point x="36" y="-2" type="curve" smooth="yes"/>
      <point x="44" y="-2"/>
      <point x="52" y="6"/>
      <point x="52" y="14" type="curve" smooth="yes"/>
      <point x="52" y="24"/>
      <point x="44" y="32"/>
      <point x="36" y="32" type="curve" smooth="yes"/>
      <point x="26" y="32"/>
      <point x="18" y="24"/>
      <point x="18" y="14" type="curve" smooth="yes"/>
      <point x="18" y="6"/>
      <point x="26" y="-2"/>
    </contour>
  </outline>
</glyph>
<glyph name="zero" format="2">
  <advance width="160.06"/>
  <unicode hex="0030"/>
  <outline>
    <contour>
      <point x="80.03" y="-2" type="curve" smooth="yes"/>
      <point x="121.042" y="-2"/>
      <point x="144.03" y="35"/>
      <point x="144.03" y="97" type="curve" smooth="yes"/>
      <point x="144.03" y="156.008"/>
      <point x="121.042" y="194"/>
      <point x="80.03" y="194" type="curve" smooth="yes"/>
      <point x="39.03" y="194"/>
      <point x="16.03" y="156.008"/>
      <point x="16.03" y="97" type="curve" smooth="yes"/>
      <point x="16.03" y="35"/>
      <point x="39.03" y="-2"/>
    </contour>
    <contour>
      <point x="80.03" y="18" type="curve" smooth="yes"/>
      <point x="53.03" y="18"/>
      <point x="38.03" y="48"/>
      <point x="38.03" y="97" type="curve" smooth="yes"/>
      <point x="38.03" y="144.011"/>
      <point x="53.03" y="176"/>
      <point x="80.03" y="176" type="curve" smooth="yes"/>
      <point x="107.049" y="176"/>
      <point x="122.03" y="144.011"/>
      <point x="122.03" y="97" type="curve" smooth="yes"/>
      <point x="122.03" y="48"/>
      <point x="107.049" y="18"/>
    </contour>
  </outline>
</glyph>
<glyph name="one" format="2">
  <advance width="118"/>
  <unicode hex="0031"/>
  <outline>
    <contour>
      <point x="62" y="0" type="line"/>
      <point x="84" y="0" type="line"/>
      <point x="84" y="186" type="line"/>
      <point x="26" y="186" type="line"/>
      <point x="26" y="165" type="line"/>
      <point x="62" y="165" type="line"/>
    </contour>
  </outline>
</glyph>
<glyph name="two" format="2">
  <advance width="154"/>
  <unicode hex="0032"/>
  <outline>
    <contour>
      <point x="20" y="0" type="line"/>
      <point x="136" y="0" type="line"/>
      <point x="136" y="20" type="line"/>
      <point x="49" y="20" type="line"/>
      <point x="92" y="72" type="line" smooth="yes"/>
      <point x="121.754" y="107.982"/>
      <point x="133" y="122"/>
      <point x="134" y="144" type="curve" smooth="yes"/>
      <point x="133" y="172"/>
      <point x="110" y="195"/>
      <point x="78" y="194" type="curve" smooth="yes"/>
      <point x="45" y="195"/>
      <point x="20" y="173"/>
      <point x="20" y="140" type="curve"/>
      <point x="42" y="140" type="line"/>
      <point x="41" y="161"/>
      <point x="55" y="175"/>
      <point x="76" y="176" type="curve" smooth="yes"/>
      <point x="97" y="175"/>
      <point x="112" y="163"/>
      <point x="112" y="144" type="curve" smooth="yes"/>
      <point x="112" y="126"/>
      <point x="100.045" y="114.722"/>
      <point x="80" y="90" type="curve" smooth="yes"/>
      <point x="20" y="16" type="line"/>
    </contour>
  </outline>
</glyph>
<glyph name="three" format="2">
  <advance width="162"/>
  <unicode hex="0033"/>
  <outline>
    <contour>
      <point x="82" y="-2" type="curve" smooth="yes"/>
      <point x="118" y="-3"/>
      <point x="145" y="20"/>
      <point x="146" y="50" type="curve" smooth="yes"/>
      <point x="145" y="74"/>
      <point x="131" y="94"/>
      <point x="108" y="99" type="curve"/>
      <point x="126" y="105"/>
      <point x="138" y="124"/>
      <point x="138" y="144" type="curve" smooth="yes"/>
      <point x="138" y="171"/>
      <point x="117" y="195"/>
      <point x="82" y="194" type="curve" smooth="yes"/>
      <point x="51" y="195"/>
      <point x="24" y="175"/>
      <point x="22" y="146" type="curve"/>
      <point x="44" y="146" type="line"/>
      <point x="46" y="164"/>
      <point x="63" y="175"/>
      <point x="82" y="176" type="curve" smooth="yes"/>
      <point x="103" y="175"/>
      <point x="116" y="163"/>
      <point x="116" y="144" type="curve" smooth="yes"/>
      <point x="116" y="124"/>
      <point x="101.022" y="109"/>
      <point x="78" y="109" type="curve" smooth="yes"/>
      <point x="64" y="109" type="line"/>
      <point x="64" y="89" type="line"/>
      <point x="78" y="89" type="line" smooth="yes"/>
      <point x="107.017" y="89"/>
      <point x="123" y="71"/>
      <point x="122" y="50" type="curve" smooth="yes"/>
      <point x="123" y="31"/>
      <point x="106" y="17"/>
      <point x="82" y="18" type="curve" smooth="yes"/>
      <point x="60" y="17"/>
      <point x="43" y="29"/>
      <point x="42" y="46" type="curve"/>
      <point x="18" y="46" type="line"/>
      <point x="20" y="17"/>
      <point x="46" y="-3"/>
    </contour>
  </outline>
</glyph>
<glyph name="four" format="2">
  <advance width="164"/>
  <unicode hex="0034"/>
  <outline>
    <contour>
      <point x="102" y="0" type="line"/>
      <point x="124" y="0" type="line"/>
      <point x="124" y="42" type="line"/>
      <point x="150" y="42" type="line"/>
      <point x="150" y="62" type="line"/>
      <point x="124" y="62" type="line"/>
      <point x="124" y="192" type="line"/>
      <point x="96" y="192" type="line"/>
      <point x="14" y="60" type="line"/>
      <point x="14" y="42" type="line"/>
      <point x="102" y="42" type="line"/>
    </contour>
    <contour>
      <point x="37" y="62" type="line"/>
      <point x="102" y="164" type="line"/>
      <point x="102" y="62" type="line"/>
    </contour>
  </outline>
</glyph>
<glyph name="five" format="2">
  <advance width="156"/>
  <unicode hex="0035"/>
  <outline>
    <contour>
      <point x="78" y="-2" type="curve" smooth="yes"/>
      <point x="113" y="-3"/>
      <point x="139" y="24"/>
      <point x="138" y="60" type="curve" smooth="yes"/>
      <point x="139" y="95"/>
      <point x="114" y="122"/>
      <point x="80" y="122" type="curve" smooth="yes"/>
      <point x="68.726" y="122"/>
      <point x="55.088" y="117.049"/>
      <point x="46" y="112" type="curve"/>
      <point x="54" y="166" type="line"/>
      <point x="130" y="166" type="line"/>
      <point x="130" y="186" type="line"/>
      <point x="36" y="186" type="line"/>
      <point x="22" y="94" type="line"/>
      <point x="44" y="94" type="line"/>
      <point x="51" y="100"/>
      <point x="65" y="102"/>
      <point x="76" y="102" type="curve" smooth="yes"/>
      <point x="100" y="101"/>
      <point x="117" y="83"/>
      <point x="118" y="58" type="curve" smooth="yes"/>
      <point x="117" y="35"/>
      <point x="100" y="17"/>
      <point x="78" y="18" type="curve" smooth="yes"/>
      <point x="58" y="17"/>
      <point x="43" y="30"/>
      <point x="42" y="46" type="curve"/>
      <point x="20" y="46" type="line"/>
      <point x="21" y="18"/>
      <point x="45" y="-3"/>
    </contour>
  </outline>
</glyph>
<glyph name="six" format="2">
  <advance width="160"/>
  <unicode hex="0036"/>
  <outline>
    <contour>
      <point x="82" y="-2" type="curve" smooth="yes"/>
      <point x="119.014" y="-2"/>
      <point x="144" y="25"/>
      <point x="144" y="60" type="curve" smooth="yes"/>
      <point x="144" y="96.014"/>
      <point x="117" y="122"/>
      <point x="84" y="122" type="curve" smooth="yes"/>
      <point x="66" y="122"/>
      <point x="49" y="111"/>
      <point x="38" y="97" type="curve"/>
      <point x="38" y="141"/>
      <point x="55.983" y="174"/>
      <point x="84" y="174" type="curve" smooth="yes"/>
      <point x="105" y="174"/>
      <point x="115" y="162"/>
      <point x="120" y="144" type="curve"/>
      <point x="142" y="144" type="line"/>
      <point x="137" y="175"/>
      <point x="115" y="194"/>
      <point x="84" y="194" type="curve" smooth="yes"/>
      <point x="41.988" y="194"/>
      <point x="16" y="152"/>
      <point x="16" y="86" type="curve" smooth="yes"/>
      <point x="16" y="17"/>
      <point x="51" y="-2"/>
    </contour>
    <contour>
      <point x="82" y="18" type="curve" smooth="yes"/>
      <point x="58" y="18"/>
      <point x="40" y="37"/>
      <point x="40" y="60" type="curve" smooth="yes"/>
      <point x="40" y="82.023"/>
      <point x="59" y="102"/>
      <point x="82" y="102" type="curve" smooth="yes"/>
      <point x="105" y="102"/>
      <point x="122" y="83.022"/>
      <point x="122" y="60" type="curve" smooth="yes"/>
      <point x="122" y="36"/>
      <point x="104.023" y="18"/>
    </contour>
  </outline>
</glyph>
<glyph name="seven" format="2">
  <advance width="146"/>
  <unicode hex="0037"/>
  <outline>
    <contour>
      <point x="26" y="0" type="line"/>
      <point x="48" y="0" type="line"/>
      <point x="132" y="172" type="line"/>
      <point x="132" y="192" type="line"/>
      <point x="12" y="192" type="line"/>
      <point x="12" y="172" type="line"/>
      <point x="109" y="172" type="line"/>
    </contour>
  </outline>
</glyph>
<glyph name="eight" format="2">
  <advance width="158"/>
  <unicode hex="0038"/>
  <outline>
    <contour>
      <point x="78" y="-2" type="curve" smooth="yes"/>
      <point x="116.013" y="-2"/>
      <point x="142" y="19"/>
      <point x="142" y="50" type="curve" smooth="yes"/>
      <point x="142" y="73.826"/>
      <point x="123.969" y="95.508"/>
      <point x="106" y="100" type="curve"/>
      <point x="124" y="104"/>
      <point x="136" y="125"/>
      <point x="136" y="146" type="curve" smooth="yes"/>
      <point x="136" y="174.018"/>
      <point x="111.015" y="194"/>
      <point x="78" y="194" type="curve" smooth="yes"/>
      <point x="46" y="194"/>
      <point x="22" y="174"/>
      <point x="22" y="146" type="curve" smooth="yes"/>
      <point x="22" y="125"/>
      <point x="34" y="104"/>
      <point x="52" y="100" type="curve"/>
      <point x="35.816" y="96.147"/>
      <point x="16" y="76.682"/>
      <point x="16" y="50" type="curve" smooth="yes"/>
      <point x="16" y="19"/>
      <point x="41" y="-2"/>
    </contour>
    <contour>
      <point x="78" y="18" type="curve" smooth="yes"/>
      <point x="53" y="18"/>
      <point x="38" y="31"/>
      <point x="38" y="50" type="curve" smooth="yes"/>
      <point x="38" y="72"/>
      <point x="55" y="89"/>
      <point x="78" y="89" type="curve" smooth="yes"/>
      <point x="102.021" y="89"/>
      <point x="120" y="72"/>
      <point x="120" y="50" type="curve" smooth="yes"/>
      <point x="120" y="31"/>
      <point x="104.019" y="18"/>
    </contour>
    <contour>
      <point x="78" y="109" type="curve" smooth="yes"/>
      <point x="59" y="109"/>
      <point x="44" y="125"/>
      <point x="44" y="144" type="curve" smooth="yes"/>
      <point x="44" y="163"/>
      <point x="58" y="176"/>
      <point x="78" y="176" type="curve" smooth="yes"/>
      <point x="99.024" y="176"/>
      <point x="114" y="163.026"/>
      <point x="114" y="144" type="curve" smooth="yes"/>
      <point x="114" y="125"/>
      <point x="99" y="109"/>
    </contour>
  </outline>
</glyph>
<glyph name="nine" format="2">
  <advance width="160"/>
  <unicode hex="0039"/>
  <outline>
    <contour>
      <point x="76" y="-2" type="curve" smooth="yes"/>
      <point x="117" y="-2"/>
      <point x="144" y="41"/>
      <point x="144" y="106" type="curve" smooth="yes"/>
      <point x="144" y="175.007"/>
      <point x="109" y="194"/>
      <point x="78" y="194" type="curve" smooth="yes"/>
      <point x="40.986" y="194"/>
      <point x="16" y="167"/>
      <point x="16" y="132" type="curve" smooth="yes"/>
      <point x="16" y="97"/>
      <point x="42.984" y="69.881"/>
      <point x="74" y="70" type="curve" smooth="yes"/>
      <point x="95.664" y="70.083"/>
      <point x="112.631" y="82.373"/>
      <point x="122" y="96" type="curve"/>
      <point x="122" y="50"/>
      <point x="104" y="18"/>
      <point x="76" y="18" type="curve" smooth="yes"/>
      <point x="55.975" y="18"/>
      <point x="44" y="30"/>
      <point x="40" y="46" type="curve"/>
      <point x="18" y="46" type="line"/>
      <point x="22" y="17"/>
      <point x="43.984" y="-2"/>
    </contour>
    <contour>
      <point x="78" y="90" type="curve" smooth="yes"/>
      <point x="54.978" y="90"/>
      <point x="38" y="109"/>
      <point x="38" y="132" type="curve" smooth="yes"/>
      <point x="38" y="156"/>
      <point x="55.977" y="174"/>
      <point x="78" y="174" type="curve" smooth="yes"/>
      <point x="102" y="174"/>
      <point x="118" y="155.022"/>
      <point x="118" y="132" type="curve" smooth="yes"/>
      <point x="118" y="111"/>
      <point x="101" y="90"/>
    </contour>
  </outline>
</glyph>
<glyph name="A" format="2">
  <advance width="174"/>
  <unicode hex="0041"/>
  <outline>
    <contour>
      <point x="6" y="0" type="line"/>
      <point x="30" y="0" type="line"/>
      <point x="50" y="56" type="line"/>
      <point x="124" y="56" type="line"/>
      <point x="142" y="0" type="line"/>
      <point x="166" y="0" type="line"/>
      <point x="98" y="192" type="line"/>
      <point x="74" y="192" type="line"/>
    </contour>
    <contour>
      <point x="56" y="76" type="line"/>
      <point x="86" y="162" type="line"/>
      <point x="116" y="76" type="line"/>
    </contour>
  </outline>
</glyph>
<glyph name="B" format="2">
  <advance width="166"/>
  <unicode hex="0042"/>
  <outline>
    <contour>
      <point x="22" y="0" type="line"/>
      <point x="90" y="0" type="line" smooth="yes"/>
      <point x="134" y="0"/>
      <point x="152" y="21"/>
      <point x="152" y="50" type="curve" smooth="yes"/>
      <point x="152" y="77.668"/>
      <point x="134.233" y="96.628"/>
      <point x="114" y="100" type="curve"/>
      <point x="131" y="104"/>
      <point x="144" y="115"/>
      <point x="144" y="138" type="curve" smooth="yes"/>
      <point x="144" y="170"/>
      <point x="127" y="192"/>
      <point x="88" y="192" type="curve" smooth="yes"/>
      <point x="22" y="192" type="line"/>
    </contour>
    <contour>
      <point x="46" y="20" type="line"/>
      <point x="46" y="86" type="line"/>
      <point x="90" y="86" type="line" smooth="yes"/>
      <point x="115" y="86"/>
      <point x="130" y="68"/>
      <point x="130" y="50" type="curve" smooth="yes"/>
      <point x="130" y="33"/>
      <point x="119" y="20"/>
      <point x="90" y="20" type="curve" smooth="yes"/>
    </contour>
    <contour>
      <point x="46" y="106" type="line"/>
      <point x="46" y="172" type="line"/>
      <point x="88" y="172" type="line" smooth="yes"/>
      <point x="112" y="172"/>
      <point x="124" y="155"/>
      <point x="124" y="138" type="curve" smooth="yes"/>
      <point x="124" y="119"/>
      <point x="107" y="106"/>
      <point x="86" y="106" type="curve" smooth="yes"/>
    </contour>
  </outline>
</glyph>
<glyph name="C" format="2">
  <advance width="186"/>
  <unicode hex="0043"/>
  <outline>
    <contour>
      <point x="98" y="-2" type="curve" smooth="yes"/>
      <point x="135" y="-3"/>
      <point x="165" y="20"/>
      <point x="172" y="58" type="curve"/>
      <point x="150" y="58" type="line"/>
      <point x="144" y="32"/>
      <point x="122" y="19"/>
      <point x="98" y="18" type="curve" smooth="yes"/>
      <point x="64" y="19"/>
      <point x="37" y="47"/>
      <point x="38" y="96" type="curve"/>
      <point x="37" y="145"/>
      <point x="64" y="172"/>
      <point x="98" y="172" type="curve" smooth="yes"/>
      <point x="122" y="172"/>
      <point x="144" y="158"/>
      <point x="150" y="132" type="curve"/>
      <point x="172" y="132" type="line"/>
      <point x="165" y="170"/>
      <point x="135" y="193"/>
      <point x="98" y="192" type="curve" smooth="yes"/>
      <point x="50" y="193"/>
      <point x="15" y="156"/>
      <point x="16" y="96" type="curve"/>
      <point x="15" y="36"/>
      <point x="50" y="-3"/>
    </contour>
  </outline>
</glyph>
<glyph name="D" format="2">
  <advance width="184"/>
  <unicode hex="0044"/>
  <outline>
    <contour>
      <point x="22" y="0" type="line"/>
      <point x="80" y="0" type="line" smooth="yes"/>
      <point x="138.192" y="0"/>
      <point x="168" y="38"/>
      <point x="168" y="96" type="curve" smooth="yes"/>
      <point x="168" y="154.034"/>
      <point x="138.009" y="192"/>
      <point x="82" y="192" type="curve" smooth="yes"/>
      <point x="22" y="192" type="line"/>
    </contour>
    <contour>
      <point x="46" y="20" type="line"/>
      <point x="46" y="172" type="line"/>
      <point x="82" y="172" type="line" smooth="yes"/>
      <point x="126.011" y="172"/>
      <point x="146" y="142.043"/>
      <point x="146" y="96" type="curve" smooth="yes"/>
      <point x="146" y="50"/>
      <point x="126.01" y="20"/>
      <point x="78" y="20" type="curve" smooth="yes"/>
    </contour>
  </outline>
</glyph>
<glyph name="E" format="2">
  <advance width="154"/>
  <unicode hex="0045"/>
  <outline>
    <contour>
      <point x="22" y="0" type="line"/>
      <point x="136" y="0" type="line"/>
      <point x="136" y="20" type="line"/>
      <point x="46" y="20" type="line"/>
      <point x="46" y="88" type="line"/>
      <point x="130" y="88" type="line"/>
      <point x="130" y="108" type="line"/>
      <point x="46" y="108" type="line"/>
      <point x="46" y="172" type="line"/>
      <point x="134" y="172" type="line"/>
      <point x="134" y="192" type="line"/>
      <point x="22" y="192" type="line"/>
    </contour>
  </outline>
</glyph>
<glyph name="F" format="2">
  <advance width="152"/>
  <unicode hex="0046"/>
  <outline>
    <contour>
      <point x="22" y="0" type="line"/>
      <point x="46" y="0" type="line"/>
      <point x="46" y="88" type="line"/>
      <point x="126" y="88" type="line"/>
      <point x="126" y="108" type="line"/>
      <point x="46" y="108" type="line"/>
      <point x="46" y="172" type="line"/>
      <point x="134" y="172" type="line"/>
      <point x="134" y="192" type="line"/>
      <point x="22" y="192" type="line"/>
    </contour>
  </outline>
</glyph>
<glyph name="G" format="2">
  <advance width="192"/>
  <unicode hex="0047"/>
  <outline>
    <contour>
      <point x="98" y="-2" type="curve" smooth="yes"/>
      <point x="115.773" y="-2.711"/>
      <point x="133.821" y="1.126"/>
      <point x="156" y="22" type="curve"/>
      <point x="158" y="0" type="line"/>
      <point x="176" y="0" type="line"/>
      <point x="176" y="96" type="line"/>
      <point x="104" y="96" type="line"/>
      <point x="104" y="76" type="line"/>
      <point x="154" y="76" type="line"/>
      <point x="154" y="42"/>
      <point x="131" y="19"/>
      <point x="98" y="18" type="curve" smooth="yes"/>
      <point x="64" y="19"/>
      <point x="39" y="47"/>
      <point x="38" y="96" type="curve" smooth="yes"/>
      <point x="37" y="145"/>
      <point x="63" y="174"/>
      <point x="98" y="174" type="curve" smooth="yes"/>
      <point x="126" y="174"/>
      <point x="151" y="156"/>
      <point x="154" y="124" type="curve"/>
      <point x="176" y="124" type="line"/>
      <point x="173" y="168"/>
      <point x="139.013" y="194"/>
      <point x="98" y="194" type="curve" smooth="yes"/>
      <point x="49" y="194"/>
      <point x="15" y="156"/>
      <point x="16" y="96" type="curve" smooth="yes"/>
      <point x="17" y="36"/>
      <point x="49" y="-3"/>
    </contour>
  </outline>
</glyph>
<glyph name="H" format="2">
  <advance width="190"/>
  <unicode hex="0048"/>
  <outline>
    <contour>
      <point x="22" y="0" type="line"/>
      <point x="46" y="0" type="line"/>
      <point x="46" y="88" type="line"/>
      <point x="144" y="88" type="line"/>
      <point x="144" y="0" type="line"/>
      <point x="168" y="0" type="line"/>
      <point x="168" y="192" type="line"/>
      <point x="144" y="192" type="line"/>
      <point x="144" y="108" type="line"/>
      <point x="46" y="108" type="line"/>
      <point x="46" y="192" type="line"/>
      <point x="22" y="192" type="line"/>
    </contour>
  </outline>
</glyph>
<glyph name="I" format="2">
  <advance width="68"/>
  <unicode hex="0049"/>
  <outline>
    <contour>
      <point x="22" y="0" type="line"/>
      <point x="46" y="0" type="line"/>
      <point x="46" y="192" type="line"/>
      <point x="22" y="192" type="line"/>
    </contour>
  </outline>
</glyph>
<glyph name="J" format="2">
  <advance width="138"/>
  <unicode hex="004A"/>
  <outline>
    <contour>
      <point x="64" y="-2" type="curve" smooth="yes"/>
      <point x="96" y="-3"/>
      <point x="116" y="17"/>
      <point x="116" y="54" type="curve"/>
      <point x="116" y="192" type="line"/>
      <point x="94" y="192" type="line"/>
      <point x="94" y="54" type="line"/>
      <point x="94" y="30"/>
      <point x="83" y="17"/>
      <point x="64" y="18" type="curve" smooth="yes"/>
      <point x="46" y="17"/>
      <point x="33" y="28"/>
      <point x="32" y="44" type="curve"/>
      <point x="10" y="44" type="line"/>
      <point x="11" y="15"/>
      <point x="33" y="-3"/>
    </contour>
  </outline>
</glyph>
<glyph name="K" format="2">
  <advance width="166"/>
  <unicode hex="004B"/>
  <outline>
    <contour>
      <point x="22" y="0" type="line"/>
      <point x="46" y="0" type="line"/>
      <point x="46" y="64" type="line"/>
      <point x="68" y="90" type="line"/>
      <point x="134" y="0" type="line"/>
      <point x="160" y="0" type="line"/>
      <point x="82" y="106" type="line"/>
      <point x="160" y="192" type="line"/>
      <point x="130" y="192" type="line"/>
      <point x="46" y="98" type="line"/>
      <point x="46" y="192" type="line"/>
      <point x="22" y="192" type="line"/>
    </contour>
  </outline>
</glyph>
<glyph name="L" format="2">
  <advance width="144"/>
  <unicode hex="004C"/>
  <outline>
    <contour>
      <point x="22" y="0" type="line"/>
      <point x="132" y="0" type="line"/>
      <point x="132" y="20" type="line"/>
      <point x="46" y="20" type="line"/>
      <point x="46" y="186" type="line"/>
      <point x="22" y="186" type="line"/>
    </contour>
  </outline>
</glyph>
<glyph name="M" format="2">
  <advance width="228"/>
  <unicode hex="004D"/>
  <outline>
    <contour>
      <point x="22" y="0" type="line"/>
      <point x="44" y="0" type="line"/>
      <point x="44" y="148" type="line"/>
      <point x="104" y="0" type="line"/>
      <point x="124" y="0" type="line"/>
      <point x="184" y="148" type="line"/>
      <point x="184" y="0" type="line"/>
      <point x="206" y="0" type="line"/>
      <point x="206" y="192" type="line"/>
      <point x="178" y="192" type="line"/>
      <point x="113" y="32" type="line"/>
      <point x="50" y="192" type="line"/>
      <point x="22" y="192" type="line"/>
    </contour>
  </outline>
</glyph>
<glyph name="N" format="2">
  <advance width="192"/>
  <unicode hex="004E"/>
  <outline>
    <contour>
      <point x="22" y="0" type="line"/>
      <point x="46" y="0" type="line"/>
      <point x="46" y="152" type="line"/>
      <point x="148" y="0" type="line"/>
      <point x="170" y="0" type="line"/>
      <point x="170" y="192" type="line"/>
      <point x="148" y="192" type="line"/>
      <point x="148" y="40" type="line"/>
      <point x="44" y="192" type="line"/>
      <point x="22" y="192" type="line"/>
    </contour>
  </outline>
</glyph>
<glyph name="O" format="2">
  <advance width="194"/>
  <unicode hex="004F"/>
  <outline>
    <contour>
      <point x="98" y="-2" type="curve" smooth="yes"/>
      <point x="145" y="-3"/>
      <point x="180" y="36"/>
      <point x="180" y="96" type="curve"/>
      <point x="180" y="154"/>
      <point x="145" y="193"/>
      <point x="98" y="192" type="curve" smooth="yes"/>
      <point x="50" y="193"/>
      <point x="15" y="154"/>
      <point x="16" y="96" type="curve"/>
      <point x="15" y="36"/>
      <point x="50" y="-3"/>
    </contour>
    <contour>
      <point x="98" y="18" type="curve" smooth="yes"/>
      <point x="64" y="19"/>
      <point x="37" y="47"/>
      <point x="38" y="96" type="curve"/>
      <point x="37" y="143"/>
      <point x="64" y="172"/>
      <point x="98" y="172" type="curve" smooth="yes"/>
      <point x="131" y="172"/>
      <point x="158" y="143"/>
      <point x="158" y="96" type="curve"/>
      <point x="158" y="47"/>
      <point x="131" y="19"/>
    </contour>
  </outline>
</glyph>
<glyph name="P" format="2">
  <advance width="162"/>
  <unicode hex="0050"/>
  <outline>
    <contour>
      <point x="22" y="0" type="line"/>
      <point x="46" y="0" type="line"/>
      <point x="46" y="74" type="line"/>
      <point x="86" y="74" type="line" smooth="yes"/>
      <point x="130" y="74"/>
      <point x="150" y="100"/>
      <point x="148" y="134" type="curve" smooth="yes"/>
      <point x="150" y="166"/>
      <point x="130" y="192"/>
      <point x="86" y="192" type="curve" smooth="yes"/>
      <point x="22" y="192" type="line"/>
    </contour>
    <contour>
      <point x="46" y="94" type="line"/>
      <point x="46" y="172" type="line"/>
      <point x="84" y="172" type="line" smooth="yes"/>
      <point x="116" y="172"/>
      <point x="128" y="156"/>
      <point x="126" y="134" type="curve" smooth="yes"/>
      <point x="128" y="112"/>
      <point x="116" y="94"/>
      <point x="86" y="94" type="curve" smooth="yes"/>
    </contour>
  </outline>
</glyph>
<glyph name="Q" format="2">
  <advance width="194"/>
  <unicode hex="0051"/>
  <outline>
    <contour>
      <point x="168" y="0" type="line"/>
      <point x="180" y="12" type="line"/>
      <point x="132" y="60" type="line"/>
      <point x="120" y="48" type="line"/>
    </contour>
    <component base="O"/>
  </outline>
</glyph>
<glyph name="R" format="2">
  <advance width="164"/>
  <unicode hex="0052"/>
  <outline>
    <contour>
      <point x="22" y="0" type="line"/>
      <point x="46" y="0" type="line"/>
      <point x="46" y="74" type="line"/>
      <point x="92" y="74" type="line"/>
      <point x="130" y="0" type="line"/>
      <point x="156" y="0" type="line"/>
      <point x="114" y="78" type="line"/>
      <point x="138" y="88"/>
      <point x="148" y="108"/>
      <point x="148" y="134" type="curve" smooth="yes"/>
      <point x="148" y="168"/>
      <point x="130" y="192"/>
      <point x="86" y="192" type="curve" smooth="yes"/>
      <point x="22" y="192" type="line"/>
    </contour>
    <contour>
      <point x="46" y="96" type="line"/>
      <point x="46" y="172" type="line"/>
      <point x="84" y="172" type="line" smooth="yes"/>
      <point x="116" y="172"/>
      <point x="126" y="158"/>
      <point x="126" y="134" type="curve" smooth="yes"/>
      <point x="126" y="112"/>
      <point x="116" y="96"/>
      <point x="86" y="96" type="curve" smooth="yes"/>
    </contour>
  </outline>
</glyph>
<glyph name="S" format="2">
  <advance width="164"/>
  <unicode hex="0053"/>
  <outline>
    <contour>
      <point x="82" y="-4" type="curve" smooth="yes"/>
      <point x="124.012" y="-4"/>
      <point x="150" y="20"/>
      <point x="150" y="50" type="curve" smooth="yes"/>
      <point x="150" y="87.014"/>
      <point x="115.91" y="101.575"/>
      <point x="96" y="106" type="curve" smooth="yes"/>
      <point x="78" y="110" type="line" smooth="yes"/>
      <point x="63.067" y="113.318"/>
      <point x="42" y="122"/>
      <point x="42" y="142" type="curve" smooth="yes"/>
      <point x="42" y="160.028"/>
      <point x="58" y="174"/>
      <point x="82" y="174" type="curve" smooth="yes"/>
      <point x="105.022" y="174"/>
      <point x="121" y="162"/>
      <point x="122" y="144" type="curve"/>
      <point x="144" y="144" type="line"/>
      <point x="143" y="172"/>
      <point x="119.014" y="194"/>
      <point x="84" y="194" type="curve" smooth="yes"/>
      <point x="48" y="194"/>
      <point x="20" y="172"/>
      <point x="20" y="140" type="curve" smooth="yes"/>
      <point x="20" y="116"/>
      <point x="37.058" y="99.236"/>
      <point x="66" y="92" type="curve" smooth="yes"/>
      <point x="90" y="86" type="line" smooth="yes"/>
      <point x="109.06" y="81.235"/>
      <point x="128" y="69.026"/>
      <point x="128" y="50" type="curve" smooth="yes"/>
      <point x="128" y="31"/>
      <point x="107.02" y="18"/>
      <point x="82" y="18" type="curve" smooth="yes"/>
      <point x="59" y="18"/>
      <point x="39" y="27"/>
      <point x="38" y="48" type="curve"/>
      <point x="14" y="48" type="line"/>
      <point x="17" y="17"/>
      <point x="41" y="-4"/>
    </contour>
  </outline>
</glyph>
<glyph name="T" format="2">
  <advance width="164"/>
  <unicode hex="0054"/>
  <outline>
    <contour>
      <point x="12" y="172" type="line"/>
      <point x="70" y="172" type="line"/>
      <point x="70" y="0" type="line"/>
      <point x="94" y="0" type="line"/>
      <point x="94" y="172" type="line"/>
      <point x="152" y="172" type="line"/>
      <point x="152" y="192" type="line"/>
      <point x="12" y="192" type="line"/>
    </contour>
  </outline>
</glyph>
<glyph name="U" format="2">
  <advance width="190"/>
  <unicode hex="0055"/>
  <outline>
    <contour>
      <point x="94" y="-4" type="curve" smooth="yes"/>
      <point x="139" y="-4"/>
      <point x="168" y="25"/>
      <point x="168" y="62" type="curve" smooth="yes"/>
      <point x="168" y="192" type="line"/>
      <point x="144" y="192" type="line"/>
      <point x="144" y="64" type="line" smooth="yes"/>
      <point x="144" y="37"/>
      <point x="126" y="18"/>
      <point x="94" y="18" type="curve" smooth="yes"/>
      <point x="64" y="18"/>
      <point x="46" y="37"/>
      <point x="46" y="64" type="curve" smooth="yes"/>
      <point x="46" y="192" type="line"/>
      <point x="22" y="192" type="line"/>
      <point x="22" y="62" type="line" smooth="yes"/>
      <point x="22" y="25"/>
      <point x="50.988" y="-4"/>
    </contour>
  </outline>
</glyph>
<glyph name="V" format="2">
  <advance width="174"/>
  <unicode hex="0056"/>
  <outline>
    <contour>
      <point x="74" y="0" type="line"/>
      <point x="98" y="0" type="line"/>
      <point x="166" y="192" type="line"/>
      <point x="142" y="192" type="line"/>
      <point x="87" y="29" type="line"/>
      <point x="30" y="192" type="line"/>
      <point x="6" y="192" type="line"/>
    </contour>
  </outline>
</glyph>
<glyph name="W" format="2">
  <advance width="242"/>
  <unicode hex="0057"/>
  <outline>
    <contour>
      <point x="56" y="0" type="line"/>
      <point x="80" y="0" type="line"/>
      <point x="121" y="157" type="line"/>
      <point x="164" y="0" type="line"/>
      <point x="186" y="0" type="line"/>
      <point x="238" y="192" type="line"/>
      <point x="214" y="192" type="line"/>
      <point x="176" y="31" type="line"/>
      <point x="134" y="192" type="line"/>
      <point x="108" y="192" type="line"/>
      <point x="69" y="31" type="line"/>
      <point x="28" y="192" type="line"/>
      <point x="6" y="192" type="line"/>
    </contour>
  </outline>
</glyph>
<glyph name="X" format="2">
  <advance width="164"/>
  <unicode hex="0058"/>
  <outline>
    <contour>
      <point x="6" y="0" type="line"/>
      <point x="34" y="0" type="line"/>
      <point x="83" y="76" type="line"/>
      <point x="130" y="0" type="line"/>
      <point x="158" y="0" type="line"/>
      <point x="98" y="94" type="line"/>
      <point x="158" y="186" type="line"/>
      <point x="130" y="186" type="line"/>
      <point x="83" y="108" type="line"/>
      <point x="34" y="186" type="line"/>
      <point x="6" y="186" type="line"/>
      <point x="66" y="94" type="line"/>
    </contour>
  </outline>
</glyph>
<glyph name="Y" format="2">
  <advance width="170"/>
  <unicode hex="0059"/>
  <outline>
    <contour>
      <point x="74" y="0" type="line"/>
      <point x="96" y="0" type="line"/>
      <point x="96" y="76" type="line"/>
      <point x="164" y="186" type="line"/>
      <point x="138" y="186" type="line"/>
      <point x="85" y="98" type="line"/>
      <point x="32" y="186" type="line"/>
      <point x="6" y="186" type="line"/>
      <point x="74" y="76" type="line"/>
    </contour>
  </outline>
</glyph>
<glyph name="Z" format="2">
  <advance width="160"/>
  <unicode hex="005A"/>
  <outline>
    <contour>
      <point x="16" y="0" type="line"/>
      <point x="144" y="0" type="line"/>
      <point x="144" y="20" type="line"/>
      <point x="44" y="20" type="line"/>
      <point x="144" y="170" type="line"/>
      <point x="144" y="186" type="line"/>
      <point x="16" y="186" type="line"/>
      <point x="16" y="166" type="line"/>
      <point x="116" y="166" type="line"/>
      <point x="16" y="16" type="line"/>
    </contour>
  </outline>
</glyph>
<glyph name="a" format="2">
  <advance width="144"/>
  <unicode hex="0061"/>
  <outline>
    <contour>
      <point x="60" y="-4" type="curve" smooth="yes"/>
      <point x="80.032" y="-3.199"/>
      <point x="95.338" y="6.451"/>
      <point x="104" y="18" type="curve"/>
      <point x="104" y="12"/>
      <point x="105" y="6"/>
      <point x="107" y="0" type="curve"/>
      <point x="127" y="0" type="line"/>
      <point x="125" y="7.447"/>
      <point x="124" y="14.893"/>
      <point x="124" y="22.34" type="curve" smooth="yes"/>
      <point x="124" y="92" type="line" smooth="yes"/>
      <point x="124" y="136"/>
      <point x="91" y="141"/>
      <point x="74" y="142" type="curve" smooth="yes"/>
      <point x="52" y="141"/>
      <point x="29" y="132"/>
      <point x="24" y="102" type="curve"/>
      <point x="42" y="102" type="line"/>
      <point x="44" y="114"/>
      <point x="53" y="127"/>
      <point x="74" y="126" type="curve" smooth="yes"/>
      <point x="96" y="127"/>
      <point x="104" y="115"/>
      <point x="104" y="94" type="curve" smooth="yes"/>
      <point x="104" y="84.177"/>
      <point x="87.924" y="81.932"/>
      <point x="69.358" y="78.941" type="curve" smooth="yes"/>
      <point x="43.615" y="74.794"/>
      <point x="13.087" y="69.212"/>
      <point x="14" y="40" type="curve" smooth="yes"/>
      <point x="13" y="12"/>
      <point x="34" y="-3"/>
    </contour>
    <contour>
      <point x="64" y="16" type="curve" smooth="yes"/>
      <point x="47" y="16"/>
      <point x="35" y="24"/>
      <point x="34" y="38" type="curve" smooth="yes"/>
      <point x="35" y="55"/>
      <point x="49" y="60"/>
      <point x="66" y="62" type="curve" smooth="yes"/>
      <point x="75" y="63"/>
      <point x="100" y="66"/>
      <point x="104" y="70" type="curve"/>
      <point x="104" y="50" type="line" smooth="yes"/>
      <point x="104" y="33"/>
      <point x="89" y="16"/>
    </contour>
  </outline>
</glyph>
<glyph name="b" format="2">
  <advance width="158"/>
  <unicode hex="0062"/>
  <outline>
    <contour>
      <point x="22" y="0" type="line"/>
      <point x="44" y="0" type="line"/>
      <point x="44" y="22" type="line"/>
      <point x="61.251" y="2.284"/>
      <point x="67.356" y="-1.717"/>
      <point x="86" y="-2" type="curve" smooth="yes"/>
      <point x="121.01" y="-2.531"/>
      <point x="146" y="27"/>
      <point x="146" y="72" type="curve" smooth="yes"/>
      <point x="146" y="117"/>
      <point x="121.011" y="145.543"/>
      <point x="86" y="146" type="curve" smooth="yes"/>
      <point x="66.036" y="146.261"/>
      <point x="58.893" y="141.893"/>
      <point x="44" y="122" type="curve"/>
      <point x="44" y="192" type="line"/>
      <point x="22" y="192" type="line"/>
    </contour>
    <contour>
      <point x="84" y="16" type="curve" smooth="yes"/>
      <point x="58" y="16"/>
      <point x="44" y="40"/>
      <point x="44" y="72" type="curve" smooth="yes"/>
      <point x="44" y="105"/>
      <point x="57" y="126"/>
      <point x="84" y="126" type="curve" smooth="yes"/>
      <point x="111" y="126"/>
      <point x="124" y="103"/>
      <point x="124" y="72" type="curve" smooth="yes"/>
      <point x="124" y="42"/>
      <point x="111" y="16"/>
    </contour>
  </outline>
</glyph>
<glyph name="c" format="2">
  <advance width="142"/>
  <unicode hex="0063"/>
  <outline>
    <contour>
      <point x="76" y="-2" type="curve" smooth="yes"/>
      <point x="107" y="-2"/>
      <point x="130" y="20"/>
      <point x="132" y="56" type="curve"/>
      <point x="112" y="56" type="line"/>
      <point x="111" y="29"/>
      <point x="93" y="16"/>
      <point x="76" y="16" type="curve" smooth="yes"/>
      <point x="51" y="16"/>
      <point x="34" y="39"/>
      <point x="34" y="72" type="curve" smooth="yes"/>
      <point x="34" y="105"/>
      <point x="51" y="126"/>
      <point x="76" y="126" type="curve" smooth="yes"/>
      <point x="95" y="126"/>
      <point x="111" y="109"/>
      <point x="112" y="88" type="curve"/>
      <point x="132" y="88" type="line"/>
      <point x="130" y="123"/>
      <point x="105" y="146"/>
      <point x="76" y="146" type="curve" smooth="yes"/>
      <point x="38" y="146"/>
      <point x="14" y="116"/>
      <point x="14" y="72" type="curve" smooth="yes"/>
      <point x="14" y="29"/>
      <point x="37" y="-2"/>
    </contour>
  </outline>
</glyph>
<glyph name="d" format="2">
  <advance width="158"/>
  <unicode hex="0064"/>
  <outline>
    <contour>
      <point x="72" y="-2" type="curve" smooth="yes"/>
      <point x="91.937" y="-2"/>
      <point x="98.931" y="1.931"/>
      <point x="116" y="22" type="curve"/>
      <point x="116" y="0" type="line"/>
      <point x="136" y="0" type="line"/>
      <point x="136" y="192" type="line"/>
      <point x="114" y="192" type="line"/>
      <point x="114" y="122" type="line"/>
      <point x="107.969" y="130.777"/>
      <point x="97.652" y="146.048"/>
      <point x="72" y="146" type="curve" smooth="yes"/>
      <point x="36.986" y="145.937"/>
      <point x="14" y="115.012"/>
      <point x="14" y="72" type="curve" smooth="yes"/>
      <point x="14" y="27"/>
      <point x="37" y="-2"/>
    </contour>
    <contour>
      <point x="76" y="16" type="curve" smooth="yes"/>
      <point x="48" y="16"/>
      <point x="34" y="42"/>
      <point x="34" y="72" type="curve" smooth="yes"/>
      <point x="34" y="101.017"/>
      <point x="48" y="126"/>
      <point x="76" y="126" type="curve" smooth="yes"/>
      <point x="101" y="126"/>
      <point x="116" y="103.016"/>
      <point x="116" y="72" type="curve" smooth="yes"/>
      <point x="116" y="41"/>
      <point x="101" y="16"/>
    </contour>
  </outline>
</glyph>
<glyph name="e" format="2">
  <advance width="150"/>
  <unicode hex="0065"/>
  <outline>
    <contour>
      <point x="78" y="-2" type="curve" smooth="yes"/>
      <point x="107" y="-3"/>
      <point x="130" y="14"/>
      <point x="134" y="38" type="curve"/>
      <point x="114" y="38" type="line"/>
      <point x="108" y="24"/>
      <point x="95" y="16"/>
      <point x="78" y="16" type="curve" smooth="yes"/>
      <point x="53.101" y="16"/>
      <point x="35.539" y="34.342"/>
      <point x="34.096" y="64" type="curve"/>
      <point x="136" y="64" type="line"/>
      <point x="136" y="74" type="line" smooth="yes"/>
      <point x="136" y="126"/>
      <point x="105" y="146"/>
      <point x="76" y="146" type="curve" smooth="yes"/>
      <point x="37.987" y="146"/>
      <point x="13" y="114"/>
      <point x="14" y="70" type="curve" smooth="yes"/>
      <point x="13" y="28"/>
      <point x="38" y="-3"/>
    </contour>
    <contour>
      <point x="34.161" y="84" type="line"/>
      <point x="35.891" y="105.592"/>
      <point x="51.509" y="126"/>
      <point x="76" y="126" type="curve" smooth="yes"/>
      <point x="99" y="126"/>
      <point x="114" y="107"/>
      <point x="114" y="84" type="curve"/>
    </contour>
  </outline>
</glyph>
<glyph name="f" format="2">
  <advance width="92"/>
  <unicode hex="0066"/>
  <outline>
    <contour>
      <point x="30" y="0" type="line"/>
      <point x="50" y="0" type="line"/>
      <point x="50" y="122" type="line"/>
      <point x="82" y="122" type="line"/>
      <point x="82" y="140" type="line"/>
      <point x="50" y="140" type="line"/>
      <point x="50" y="165" type="line" smooth="yes"/>
      <point x="50" y="173.036"/>
      <point x="53.929" y="175"/>
      <point x="60" y="175" type="curve" smooth="yes"/>
      <point x="82" y="175" type="line"/>
      <point x="82" y="194" type="line"/>
      <point x="56" y="194" type="line" smooth="yes"/>
      <point x="38.975" y="194"/>
      <point x="30" y="186"/>
      <point x="30" y="167" type="curve" smooth="yes"/>
      <point x="30" y="140" type="line"/>
      <point x="6" y="140" type="line"/>
      <point x="6" y="122" type="line"/>
      <point x="30" y="122" type="line"/>
    </contour>
  </outline>
</glyph>
<glyph name="g" format="2">
  <advance width="156"/>
  <unicode hex="0067"/>
  <outline>
    <contour>
      <point x="76" y="-56" type="curve" smooth="yes"/>
      <point x="109" y="-55"/>
      <point x="136" y="-40"/>
      <point x="136" y="-4" type="curve" smooth="yes"/>
      <point x="136" y="144" type="line"/>
      <point x="116" y="144" type="line"/>
      <point x="116" y="122" type="line"/>
      <point x="105.354" y="138.646"/>
      <point x="94.171" y="145.208"/>
      <point x="72" y="146" type="curve" smooth="yes"/>
      <point x="37" y="145"/>
      <point x="13" y="117"/>
      <point x="14" y="74" type="curve" smooth="yes"/>
      <point x="13" y="31"/>
      <point x="39" y="2"/>
      <point x="72" y="2" type="curve" smooth="yes"/>
      <point x="100" y="2"/>
      <point x="111" y="18"/>
      <point x="114" y="26" type="curve"/>
      <point x="114" y="-2" type="line" smooth="yes"/>
      <point x="114" y="-26.021"/>
      <point x="99" y="-36"/>
      <point x="76" y="-36" type="curve" smooth="yes"/>
      <point x="51" y="-36"/>
      <point x="40.613" y="-33.332"/>
      <point x="36" y="-18" type="curve"/>
      <point x="15.477" y="-18" type="line"/>
      <point x="17.624" y="-46.036"/>
      <point x="45" y="-55"/>
    </contour>
    <contour>
      <point x="76" y="22" type="curve" smooth="yes"/>
      <point x="48" y="21"/>
      <point x="35" y="46"/>
      <point x="34" y="74" type="curve" smooth="yes"/>
      <point x="35" y="103"/>
      <point x="48" y="126"/>
      <point x="76" y="126" type="curve" smooth="yes"/>
      <point x="101" y="126"/>
      <point x="115" y="105"/>
      <point x="116" y="74" type="curve" smooth="yes"/>
      <point x="115" y="44"/>
      <point x="101" y="21"/>
    </contour>
  </outline>
</glyph>
<glyph name="h" format="2">
  <advance width="152"/>
  <unicode hex="0068"/>
  <outline>
    <contour>
      <point x="20" y="0" type="line"/>
      <point x="42" y="0" type="line"/>
      <point x="42" y="88" type="line" smooth="yes"/>
      <point x="42" y="112"/>
      <point x="57" y="126"/>
      <point x="78" y="126" type="curve" smooth="yes"/>
      <point x="98" y="126"/>
      <point x="110" y="113"/>
      <point x="110" y="92" type="curve" smooth="yes"/>
      <point x="110" y="0" type="line"/>
      <point x="132" y="0" type="line"/>
      <point x="132" y="92" type="line" smooth="yes"/>
      <point x="132" y="129"/>
      <point x="113" y="146"/>
      <point x="84" y="146" type="curve" smooth="yes"/>
      <point x="66.709" y="146"/>
      <point x="52.566" y="138.436"/>
      <point x="42" y="122" type="curve"/>
      <point x="42" y="192" type="line"/>
      <point x="20" y="192" type="line"/>
    </contour>
  </outline>
</glyph>
<glyph name="i" format="2">
  <advance width="60"/>
  <unicode hex="0069"/>
  <outline>
    <contour>
      <point x="20" y="0" type="line"/>
      <point x="42" y="0" type="line"/>
      <point x="42" y="144" type="line"/>
      <point x="20" y="144" type="line"/>
    </contour>
    <contour>
      <point x="20" y="164" type="line"/>
      <point x="42" y="164" type="line"/>
      <point x="42" y="192" type="line"/>
      <point x="20" y="192" type="line"/>
    </contour>
  </outline>
</glyph>
<glyph name="j" format="2">
  <advance width="60"/>
  <unicode hex="006A"/>
  <outline>
    <contour>
      <point x="-4" y="-52" type="line"/>
      <point x="28.242" y="-52"/>
      <point x="42" y="-24.679"/>
      <point x="42" y="0" type="curve" smooth="yes"/>
      <point x="42" y="144" type="line"/>
      <point x="20" y="144" type="line"/>
      <point x="20" y="0" type="line" smooth="yes"/>
      <point x="20" y="-20.998"/>
      <point x="7.444" y="-32"/>
      <point x="-4" y="-32" type="curve"/>
    </contour>
    <contour>
      <point x="20" y="168" type="line"/>
      <point x="42" y="168" type="line"/>
      <point x="42" y="192" type="line"/>
      <point x="20" y="192" type="line"/>
    </contour>
  </outline>
</glyph>
<glyph name="k" format="2">
  <advance width="140"/>
  <unicode hex="006B"/>
  <outline>
    <contour>
      <point x="20" y="0" type="line"/>
      <point x="42" y="0" type="line"/>
      <point x="42" y="56" type="line"/>
      <point x="56" y="70" type="line"/>
      <point x="108" y="0" type="line"/>
      <point x="136" y="0" type="line"/>
      <point x="72" y="84" type="line"/>
      <point x="132" y="144" type="line"/>
      <point x="104" y="144" type="line"/>
      <point x="42" y="82" type="line"/>
      <point x="42" y="192" type="line"/>
      <point x="20" y="192" type="line"/>
    </contour>
  </outline>
</glyph>
<glyph name="l" format="2">
  <advance width="60"/>
  <unicode hex="006C"/>
  <outline>
    <contour>
      <point x="20" y="0" type="line"/>
      <point x="42" y="0" type="line"/>
      <point x="42" y="192" type="line"/>
      <point x="20" y="192" type="line"/>
    </contour>
  </outline>
</glyph>
<glyph name="m" format="2">
  <advance width="222"/>
  <unicode hex="006D"/>
  <outline>
    <contour>
      <point x="20" y="0" type="line"/>
      <point x="42" y="0" type="line"/>
      <point x="42" y="92" type="line" smooth="yes"/>
      <point x="42" y="112"/>
      <point x="56" y="126"/>
      <point x="72" y="126" type="curve" smooth="yes"/>
      <point x="89" y="126"/>
      <point x="100" y="116"/>
      <point x="100" y="100" type="curve" smooth="yes"/>
      <point x="100" y="0" type="line"/>
      <point x="122" y="0" type="line"/>
      <point x="122" y="94" type="line" smooth="yes"/>
      <point x="122" y="113"/>
      <point x="133" y="126"/>
      <point x="154" y="126" type="curve" smooth="yes"/>
      <point x="168" y="126"/>
      <point x="182" y="118"/>
      <point x="182" y="98" type="curve" smooth="yes"/>
      <point x="182" y="0" type="line"/>
      <point x="202" y="0" type="line"/>
      <point x="202" y="98" type="line" smooth="yes"/>
      <point x="202" y="130"/>
      <point x="185.011" y="145.326"/>
      <point x="160" y="146" type="curve" smooth="yes"/>
      <point x="147.003" y="146.35"/>
      <point x="131.429" y="140.801"/>
      <point x="118" y="122" type="curve"/>
      <point x="110" y="137"/>
      <point x="98" y="146"/>
      <point x="80" y="146" type="curve" smooth="yes"/>
      <point x="60.444" y="146"/>
      <point x="47.028" y="135.177"/>
      <point x="40" y="122" type="curve"/>
      <point x="40" y="144" type="line"/>
      <point x="20" y="144" type="line"/>
    </contour>
  </outline>
</glyph>
<glyph name="n" format="2">
  <advance width="150"/>
  <unicode hex="006E"/>
  <outline>
    <contour>
      <point x="42" y="88" type="line" smooth="yes"/>
      <point x="42" y="112"/>
      <point x="56" y="126"/>
      <point x="76" y="126" type="curve" smooth="yes"/>
      <point x="97" y="126"/>
      <point x="108" y="113"/>
      <point x="108" y="92" type="curve" smooth="yes"/>
      <point x="108" y="0" type="line"/>
      <point x="130" y="0" type="line"/>
      <point x="130" y="92" type="line" smooth="yes"/>
      <point x="130" y="128"/>
      <point x="111" y="145"/>
      <point x="82" y="146" type="curve" smooth="yes"/>
      <point x="62" y="145"/>
      <point x="49" y="136"/>
      <point x="42" y="122" type="curve"/>
      <point x="40" y="122" type="line"/>
      <point x="40" y="144" type="line"/>
      <point x="20" y="144" type="line"/>
      <point x="20" y="0" type="line"/>
      <point x="42" y="0" type="line"/>
    </contour>
  </outline>
</glyph>
<glyph name="o" format="2">
  <advance width="152"/>
  <unicode hex="006F"/>
  <outline>
    <contour>
      <point x="76" y="-2" type="curve" smooth="yes"/>
      <point x="114" y="-3"/>
      <point x="140" y="28"/>
      <point x="140" y="72" type="curve" smooth="yes"/>
      <point x="140" y="115"/>
      <point x="114" y="145"/>
      <point x="76" y="146" type="curve" smooth="yes"/>
      <point x="39" y="145"/>
      <point x="13" y="115"/>
      <point x="14" y="72" type="curve" smooth="yes"/>
      <point x="13" y="28"/>
      <point x="39" y="-3"/>
    </contour>
    <contour>
      <point x="76" y="16" type="curve" smooth="yes"/>
      <point x="48" y="16"/>
      <point x="35" y="43"/>
      <point x="34" y="72" type="curve" smooth="yes"/>
      <point x="35" y="99"/>
      <point x="48" y="126"/>
      <point x="76" y="126" type="curve" smooth="yes"/>
      <point x="105" y="126"/>
      <point x="118" y="99"/>
      <point x="118" y="72" type="curve" smooth="yes"/>
      <point x="118" y="43"/>
      <point x="105" y="16"/>
    </contour>
  </outline>
</glyph>
<glyph name="p" format="2">
  <advance width="156"/>
  <unicode hex="0070"/>
  <outline>
    <contour>
      <point x="20" y="-52" type="line"/>
      <point x="42" y="-52" type="line"/>
      <point x="42" y="20" type="line"/>
      <point x="54.109" y="2.891"/>
      <point x="62.387" y="-1.8"/>
      <point x="84" y="-2" type="curve" smooth="yes"/>
      <point x="119.013" y="-2.323"/>
      <point x="142" y="27"/>
      <point x="142" y="72" type="curve" smooth="yes"/>
      <point x="142" y="115.012"/>
      <point x="119.011" y="145.513"/>
      <point x="84" y="146" type="curve" smooth="yes"/>
      <point x="66.013" y="146.25"/>
      <point x="53.517" y="144.202"/>
      <point x="40" y="122" type="curve"/>
      <point x="40" y="144" type="line"/>
      <point x="20" y="144" type="line"/>
    </contour>
    <contour>
      <point x="80" y="16" type="curve" smooth="yes"/>
      <point x="55" y="16"/>
      <point x="40" y="41"/>
      <point x="40" y="72" type="curve" smooth="yes"/>
      <point x="40" y="103.016"/>
      <point x="55" y="126"/>
      <point x="80" y="126" type="curve" smooth="yes"/>
      <point x="108" y="126"/>
      <point x="122" y="101.017"/>
      <point x="122" y="72" type="curve" smooth="yes"/>
      <point x="122" y="42"/>
      <point x="108" y="16"/>
    </contour>
  </outline>
</glyph>
<glyph name="q" format="2">
  <advance width="156"/>
  <unicode hex="0071"/>
  <outline>
    <contour>
      <point x="72" y="-2" type="curve" smooth="yes"/>
      <point x="88.742" y="-2"/>
      <point x="101.635" y="3.635"/>
      <point x="114" y="22" type="curve"/>
      <point x="114" y="-52" type="line"/>
      <point x="136" y="-52" type="line"/>
      <point x="136" y="144" type="line"/>
      <point x="116" y="144" type="line"/>
      <point x="116" y="122" type="line"/>
      <point x="102.507" y="140.493"/>
      <point x="93.092" y="146"/>
      <point x="72" y="146" type="curve" smooth="yes"/>
      <point x="36" y="146"/>
      <point x="14" y="116.045"/>
      <point x="14" y="72" type="curve" smooth="yes"/>
      <point x="14" y="28"/>
      <point x="36" y="-2"/>
    </contour>
    <contour>
      <point x="76" y="16" type="curve" smooth="yes"/>
      <point x="48" y="16"/>
      <point x="34" y="42"/>
      <point x="34" y="72" type="curve" smooth="yes"/>
      <point x="34" y="102"/>
      <point x="48" y="126"/>
      <point x="76" y="126" type="curve" smooth="yes"/>
      <point x="100" y="126"/>
      <point x="116" y="104.062"/>
      <point x="116" y="72" type="curve" smooth="yes"/>
      <point x="116" y="40"/>
      <point x="100" y="16"/>
    </contour>
  </outline>
</glyph>
<glyph name="r" format="2">
  <advance width="96"/>
  <unicode hex="0072"/>
  <outline>
    <contour>
      <point x="20" y="0" type="line"/>
      <point x="42" y="0" type="line"/>
      <point x="42" y="92" type="line" smooth="yes"/>
      <point x="42" y="118.185"/>
      <point x="55.944" y="123.509"/>
      <point x="77.949" y="123.826" type="curve" smooth="yes"/>
      <point x="90" y="124" type="line"/>
      <point x="90" y="146" type="line"/>
      <point x="66.643" y="146"/>
      <point x="49.093" y="142.519"/>
      <point x="40" y="122" type="curve"/>
      <point x="40" y="144" type="line"/>
      <point x="20" y="144" type="line"/>
    </contour>
  </outline>
</glyph>
<glyph name="s" format="2">
  <advance width="134"/>
  <unicode hex="0073"/>
  <outline>
    <contour>
      <point x="66" y="-4" type="curve" smooth="yes"/>
      <point x="99.015" y="-4"/>
      <point x="122" y="14.978"/>
      <point x="122" y="38" type="curve" smooth="yes"/>
      <point x="122" y="58"/>
      <point x="112.08" y="74.384"/>
      <point x="84" y="80" type="curve" smooth="yes"/>
      <point x="64" y="84" type="line" smooth="yes"/>
      <point x="47.073" y="87.385"/>
      <point x="40" y="94.955"/>
      <point x="40" y="106" type="curve" smooth="yes"/>
      <point x="40" y="118"/>
      <point x="52" y="128"/>
      <point x="70" y="128" type="curve" smooth="yes"/>
      <point x="88.028" y="128"/>
      <point x="97" y="117"/>
      <point x="100" y="106" type="curve"/>
      <point x="120" y="106" type="line"/>
      <point x="118" y="130"/>
      <point x="97.019" y="146"/>
      <point x="70" y="146" type="curve" smooth="yes"/>
      <point x="40" y="146"/>
      <point x="18" y="129"/>
      <point x="18" y="106" type="curve" smooth="yes"/>
      <point x="18" y="86"/>
      <point x="29.058" y="72.236"/>
      <point x="54" y="66" type="curve" smooth="yes"/>
      <point x="78" y="60" type="line" smooth="yes"/>
      <point x="92.125" y="56.469"/>
      <point x="100" y="47"/>
      <point x="100" y="38" type="curve" smooth="yes"/>
      <point x="100" y="25.958"/>
      <point x="86" y="16"/>
      <point x="66" y="16" type="curve" smooth="yes"/>
      <point x="49" y="16"/>
      <point x="37" y="24"/>
      <point x="34" y="38" type="curve"/>
      <point x="14" y="38" type="line"/>
      <point x="17" y="14"/>
      <point x="36" y="-4"/>
    </contour>
  </outline>
</glyph>
<glyph name="t" format="2">
  <advance width="94"/>
  <unicode hex="0074"/>
  <outline>
    <contour>
      <point x="66" y="0" type="curve" smooth="yes"/>
      <point x="80" y="0" type="line"/>
      <point x="80" y="18" type="line"/>
      <point x="70" y="18" type="line" smooth="yes"/>
      <point x="58.9" y="18"/>
      <point x="50" y="21.889"/>
      <point x="50" y="40" type="curve" smooth="yes"/>
      <point x="50" y="126" type="line"/>
      <point x="80" y="126" type="line"/>
      <point x="80" y="144" type="line"/>
      <point x="50" y="144" type="line"/>
      <point x="50" y="178" type="line"/>
      <point x="30" y="178" type="line"/>
      <point x="30" y="144" type="line"/>
      <point x="8" y="144" type="line"/>
      <point x="8" y="126" type="line"/>
      <point x="30" y="126" type="line"/>
      <point x="30" y="34" type="line" smooth="yes"/>
      <point x="30" y="10"/>
      <point x="50" y="0"/>
    </contour>
  </outline>
</glyph>
<glyph name="u" format="2">
  <advance width="148"/>
  <unicode hex="0075"/>
  <outline>
    <contour>
      <point x="64" y="-2" type="curve" smooth="yes"/>
      <point x="85.166" y="-2"/>
      <point x="100.243" y="9.456"/>
      <point x="108" y="24" type="curve"/>
      <point x="108" y="0" type="line"/>
      <point x="130" y="0" type="line"/>
      <point x="130" y="144" type="line"/>
      <point x="108" y="144" type="line"/>
      <point x="108" y="58" type="line" smooth="yes"/>
      <point x="108" y="31"/>
      <point x="88" y="19"/>
      <point x="72" y="18" type="curve" smooth="yes"/>
      <point x="54" y="19"/>
      <point x="42" y="32"/>
      <point x="42" y="52" type="curve" smooth="yes"/>
      <point x="42" y="144" type="line"/>
      <point x="20" y="144" type="line"/>
      <point x="20" y="50" type="line" smooth="yes"/>
      <point x="20" y="15"/>
      <point x="39" y="-2"/>
    </contour>
  </outline>
</glyph>
<glyph name="v" format="2">
  <advance width="142"/>
  <unicode hex="0076"/>
  <outline>
    <contour>
      <point x="134" y="144" type="line"/>
      <point x="110" y="144" type="line"/>
      <point x="71" y="28" type="line"/>
      <point x="32" y="144" type="line"/>
      <point x="8" y="144" type="line"/>
      <point x="60" y="0" type="line"/>
      <point x="82" y="0" type="line"/>
    </contour>
  </outline>
</glyph>
<glyph name="w" format="2">
  <advance width="208"/>
  <unicode hex="0077"/>
  <outline>
    <contour>
      <point x="52" y="0" type="line"/>
      <point x="72" y="0" type="line"/>
      <point x="104" y="117" type="line"/>
      <point x="136" y="0" type="line"/>
      <point x="156" y="0" type="line"/>
      <point x="200" y="144" type="line"/>
      <point x="176" y="144" type="line"/>
      <point x="147" y="31" type="line"/>
      <point x="116" y="144" type="line"/>
      <point x="92" y="144" type="line"/>
      <point x="61" y="29" type="line"/>
      <point x="32" y="144" type="line"/>
      <point x="8" y="144" type="line"/>
    </contour>
  </outline>
</glyph>
<glyph name="x" format="2">
  <advance width="138"/>
  <unicode hex="0078"/>
  <outline>
    <contour>
      <point x="10" y="0" type="line"/>
      <point x="36" y="0" type="line"/>
      <point x="70" y="56" type="line"/>
      <point x="102" y="0" type="line"/>
      <point x="128" y="0" type="line"/>
      <point x="82" y="72" type="line"/>
      <point x="128" y="144" type="line"/>
      <point x="102" y="144" type="line"/>
      <point x="70" y="84" type="line"/>
      <point x="36" y="144" type="line"/>
      <point x="10" y="144" type="line"/>
      <point x="56" y="72" type="line"/>
    </contour>
  </outline>
</glyph>
<glyph name="y" format="2">
  <advance width="142"/>
  <unicode hex="0079"/>
  <outline>
    <contour>
      <point x="24" y="-50" type="line"/>
      <point x="34" y="-50" type="line"/>
      <point x="56" y="-50"/>
      <point x="65.957" y="-41.984"/>
      <point x="74" y="-20" type="curve" smooth="yes"/>
      <point x="134" y="144" type="line"/>
      <point x="110" y="144" type="line"/>
      <point x="71" y="24" type="line"/>
      <point x="32" y="144" type="line"/>
      <point x="8" y="144" type="line"/>
      <point x="60" y="0" type="line"/>
      <point x="52" y="-22" type="line" smooth="yes"/>
      <point x="49.08" y="-30.03"/>
      <point x="44" y="-32"/>
      <point x="24" y="-32" type="curve"/>
    </contour>
  </outline>
</glyph>
<glyph name="z" format="2">
  <advance width="138"/>
  <unicode hex="007A"/>
  <outline>
    <contour>
      <point x="16" y="0" type="line"/>
      <point x="126" y="0" type="line"/>
      <point x="126" y="20" type="line"/>
      <point x="46" y="20" type="line"/>
      <point x="122" y="126" type="line"/>
      <point x="122" y="144" type="line"/>
      <point x="18" y="144" type="line"/>
      <point x="18" y="124" type="line"/>
      <point x="94" y="124" type="line"/>
      <point x="16" y="16" type="line"/>
    </contour>
  </outline>
</glyph>
